<?xml version="1.0" encoding="UTF-8" standalone="no"?>
<!DOCTYPE svg PUBLIC "-//W3C//DTD SVG 1.1//EN" "http://www.w3.org/Graphics/SVG/1.1/DTD/svg11.dtd">
<svg width="100%" height="100%" viewBox="0 0 700 700" version="1.1" xmlns="http://www.w3.org/2000/svg" xmlns:xlink="http://www.w3.org/1999/xlink" xml:space="preserve" xmlns:serif="http://www.serif.com/" style="fill-rule:evenodd;clip-rule:evenodd;stroke-linejoin:round;stroke-miterlimit:2;">
    <g>
        <g transform="matrix(1.4994,0,0,1.4994,-174.709,-69.9666)">
            <path d="M327.61,503.55C324.012,503.48 320.485,502.55 317.321,500.835C313.977,498.706 311.212,495.78 309.282,492.32C304.993,484.331 301.403,475.988 298.555,467.382C297.805,465.491 295.196,466.651 295.692,468.518C297.137,473.909 298.539,479.311 300.008,484.694C301.137,489.565 302.989,494.237 305.496,498.565C310.028,505.761 320.168,512.659 328.613,507.526C329.313,506.979 329.625,506.073 329.406,505.214C329.191,504.35 328.484,503.698 327.609,503.55L327.61,503.55Z" style="fill:rgb(118,47,14);fill-rule:nonzero;"/>
        </g>
        <g transform="matrix(1.4994,0,0,1.4994,-174.709,-69.9666)">
            <path d="M352.22,488.2C349.517,486.106 346.099,485.075 343.31,483.032L343.306,483.032C340.739,481.11 338.443,478.848 336.482,476.313C334.622,473.7 332.95,470.958 331.489,468.102C330.677,466.712 329.673,465.438 328.513,464.325C327.306,463.231 325.896,462.391 324.361,461.848C323.716,461.594 322.982,461.844 322.63,462.438C322.275,463.036 322.407,463.798 322.939,464.243C324.111,465.587 324.849,467.255 325.052,469.028L326.259,473.845C327.259,477.442 328.931,480.817 331.185,483.794C335.564,490.2 342.431,494.482 350.115,495.587C353.873,495.622 354.853,490.239 352.22,488.2L352.22,488.2Z" style="fill:rgb(118,47,14);fill-rule:nonzero;"/>
        </g>
        <g transform="matrix(1.4994,0,0,1.4994,-174.709,-69.9666)">
            <path d="M365.61,501.75C358.426,503.301 350.969,503.016 343.926,500.922C340.981,499.598 338.278,497.793 335.926,495.582C333.239,493.211 330.739,490.645 328.442,487.895C327.649,486.898 325.727,487.824 326.391,489.047C328.348,492.652 329.809,496.379 332.125,499.805C334.301,503.297 337.11,506.348 340.414,508.801C344.235,511.379 348.688,512.863 353.293,513.086C358.692,514.164 364.301,513.196 369.027,510.367C370.688,509.035 371.285,506.778 370.5,504.797C369.715,502.817 367.731,501.582 365.609,501.75L365.61,501.75Z" style="fill:rgb(118,47,14);fill-rule:nonzero;"/>
        </g>
        <g transform="matrix(1.4994,0,0,1.4994,-174.709,-69.9666)">
            <path d="M372.56,461.31C369.732,463.103 367.091,465.185 364.236,466.947C361.451,468.642 358.501,470.052 355.427,471.146C352.294,472.115 349.087,472.83 345.841,473.287C344.697,473.509 343.962,475.107 345.099,475.888C350.923,478.978 357.857,479.181 363.853,476.439C366.943,475.236 369.9,473.712 372.681,471.9C375.38,470.208 379.779,468.048 379.853,464.415C379.935,460.47 375.412,459.505 372.56,461.31L372.56,461.31Z" style="fill:rgb(118,47,14);fill-rule:nonzero;"/>
        </g>
        <g transform="matrix(1.4994,0,0,1.4994,-174.709,-69.9666)">
            <path d="M339.67,169.41C333.865,182.933 322.588,193.355 308.647,198.074C301.487,200.875 294.17,203.051 287.03,205.945L287.03,205.949C283.878,207.273 280.811,208.793 277.846,210.496C274.796,212.07 272.155,214.344 270.151,217.129C268.858,219.051 271.319,221.258 272.854,219.695C275.339,216.992 278.464,214.957 281.944,213.785C285.44,212.664 289.124,212.328 292.682,211.547L292.678,211.543C300.627,209.863 308.33,207.176 315.6,203.547C322.358,200.269 328.35,195.601 333.182,189.848C337.827,184.07 340.893,177.192 342.092,169.879C342.37,168.25 340.17,167.976 339.67,169.41L339.67,169.41Z" style="fill:rgb(118,47,14);fill-rule:nonzero;"/>
        </g>
        <g transform="matrix(1.4994,0,0,1.4994,-174.709,-69.9666)">
            <path d="M293.46,440.36C292.276,436.723 291.12,433.079 289.987,429.426C287.909,422.692 285.831,415.949 283.964,409.153L283.964,409.157C279.796,395.427 277.483,381.2 277.085,366.86C277.046,352.622 279.995,338.579 281.066,324.426C282.316,310.262 281.312,295.988 278.093,282.137C276.327,274.895 274.171,267.699 272.683,260.395C270.847,252.946 270.96,245.145 273.019,237.75C273.237,237.172 272.964,236.519 272.394,236.273C271.823,236.027 271.163,236.273 270.89,236.832C266.175,249.25 265.729,262.887 269.636,275.582C271.339,282.332 272.667,289.168 273.612,296.062C274.265,303.343 274.276,310.664 273.647,317.945C272.065,332.644 271.276,347.418 271.28,362.207C271.897,376.766 273.854,391.238 277.124,405.437C278.983,413.398 281.28,421.253 284.003,428.964C285.362,432.843 286.765,436.706 288.206,440.558C289.37,444.359 290.987,448.003 293.022,451.421C293.487,451.995 294.272,452.198 294.96,451.925C295.647,451.647 296.077,450.96 296.019,450.222C295.546,446.847 294.687,443.538 293.46,440.358L293.46,440.36Z" style="fill:rgb(118,47,14);fill-rule:nonzero;"/>
        </g>
        <g transform="matrix(1.4994,0,0,1.4994,-174.709,-69.9666)">
            <path d="M337.92,314.44C334.858,317.94 331.049,320.702 326.775,322.53C322.599,324.463 318.103,325.604 313.513,325.889L312.618,326.112C311.841,320.338 310.978,314.573 310.029,308.815C307.728,294.913 304.779,281.116 302.271,267.253C301.892,265.147 298.646,265.46 298.935,267.616C300.634,280.343 301.908,293.096 303.361,305.854C304.779,318.299 306.201,330.76 307.29,343.241C308.412,355.991 309.376,368.803 309.513,381.608C309.638,393.452 308.849,405.241 308.58,417.081L308.58,417.085C307.431,429.487 310.341,441.925 316.88,452.526C317.63,453.464 318.947,453.717 319.99,453.128C321.037,452.542 321.501,451.284 321.091,450.159C319.169,445.159 317.916,439.925 317.369,434.597C317.001,429.359 316.923,424.101 317.13,418.855C317.334,407.046 317.837,395.312 317.435,383.5C316.865,366.855 315.583,350.285 313.595,333.785L313.591,333.781C319.396,333.988 325.134,332.519 330.118,329.543C332.599,328.16 334.818,326.359 336.681,324.218C338.431,321.984 339.974,319.593 341.29,317.082C342.7,314.793 339.532,312.144 337.919,314.441L337.92,314.44Z" style="fill:rgb(118,47,14);fill-rule:nonzero;"/>
        </g>
        <g transform="matrix(1.4994,0,0,1.4994,-174.709,-69.9666)">
            <path d="M448.67,214.58C441.736,210.627 433.924,207.689 426.584,204.377C413.029,200.006 400.846,192.186 391.229,181.682C386.377,175.858 384.405,168.159 385.858,160.717C386.405,158.815 383.37,158.08 382.651,159.932L382.647,159.936C380.245,165.873 380.092,172.487 382.225,178.526C384.862,184.995 389.178,190.639 394.725,194.878C407.573,203.694 421.452,210.898 436.053,216.327C442.979,219.452 452.725,223.237 453.678,231.222C453.889,232.983 456.752,232.714 457.284,231.241C459.014,224.312 455.327,217.175 448.67,214.581L448.67,214.58Z" style="fill:rgb(118,47,14);fill-rule:nonzero;"/>
        </g>
        <g transform="matrix(1.4994,0,0,1.4994,-174.709,-69.9666)">
            <path d="M451.87,252.91C448.854,260.789 445.53,268.527 442.729,276.484C439.929,284.441 437.327,292.445 434.972,300.531C432.655,308.535 430.772,316.656 429.331,324.863C428.089,333.332 427.417,341.875 427.315,350.433C426.87,367.417 424.792,384.32 421.105,400.906C416.444,416.988 409.796,432.422 401.308,446.851C392.132,464.3 382.429,481.679 374.921,499.929C373.764,502.745 377.921,505.531 379.686,502.757C389.12,487.941 396.959,472.105 404.963,456.487L404.959,456.487C413.397,441.745 420.439,426.245 425.994,410.19C430.076,393.585 432.346,376.585 432.768,359.491C434.346,342.542 437.053,325.714 440.873,309.124C442.803,299.855 444.889,290.644 447.256,281.472C449.654,272.195 451.803,262.855 454.283,253.605C454.662,252.211 452.381,251.578 451.869,252.91L451.87,252.91Z" style="fill:rgb(118,47,14);fill-rule:nonzero;"/>
        </g>
        <g transform="matrix(1.4994,0,0,1.4994,-174.709,-69.9666)">
            <path d="M384.48,138.98C383.078,142.886 381.265,146.636 379.074,150.164C376.593,153.66 373.445,156.633 369.808,158.906C361.554,163.621 351.87,165.187 342.55,163.32C342.058,163.258 341.597,163.562 341.46,164.039C341.324,164.516 341.554,165.02 342.007,165.227C346.648,167.617 351.851,168.715 357.062,168.402C362.488,167.965 367.742,166.293 372.425,163.52C376.601,161.012 380.226,157.688 383.085,153.746C386.21,149.856 388.226,145.199 388.925,140.262C389.066,139.118 388.355,138.039 387.249,137.723C386.14,137.403 384.968,137.938 384.48,138.981L384.48,138.98Z" style="fill:rgb(118,47,14);fill-rule:nonzero;"/>
        </g>
        <g transform="matrix(1.4994,0,0,1.4994,-174.709,-69.9666)">
            <path d="M408.71,118.02C407.026,112.704 404.612,107.645 401.534,102.997C402.085,97.224 401.94,91.403 401.108,85.665C400.28,78.38 397.792,71.38 393.835,65.204C387.054,55.649 376.694,49.247 365.116,47.458C353.085,45.271 340.667,47.634 330.284,54.095C324.409,57.743 319.479,62.731 315.909,68.654C312.296,75.181 310.182,82.431 309.729,89.877C309.077,98.83 309.382,107.826 310.643,116.713C311.19,121.182 311.968,125.623 312.968,130.014C314.077,134.565 315.491,139.033 317.198,143.397C317.456,144.006 318.12,144.334 318.761,144.174C319.401,144.018 319.831,143.416 319.776,142.756C319.315,139.104 319.05,135.467 318.604,131.811C318.139,127.995 317.718,124.163 317.405,120.331C317.128,116.972 316.921,113.593 316.807,110.206C318.011,105.991 320.003,102.046 322.679,98.569C327.534,93.167 333.363,88.729 339.863,85.483C345.64,82.339 350.562,77.827 354.199,72.342C355.437,74.576 356.913,76.674 358.601,78.6C366.124,85.323 374.078,91.557 382.406,97.26C388.222,102.42 392.926,108.713 396.23,115.748C399.781,122.881 402.23,130.51 403.492,138.373C404.331,147.525 403.511,156.752 401.07,165.607C400.964,166.427 401.413,167.216 402.171,167.54C402.929,167.869 403.812,167.654 404.335,167.017C408.605,159.869 410.988,151.751 411.261,143.431C411.949,134.876 411.081,126.267 408.71,118.021L408.71,118.02ZM347.085,60.872C346.589,63.618 345.491,66.216 343.862,68.481C339.55,73.985 334.483,78.852 328.819,82.95C324.272,86.286 320.292,90.325 317.018,94.919C317.296,89.29 318.546,83.755 320.718,78.556C323.175,73.197 326.886,68.505 331.53,64.872C336.174,61.267 341.534,58.697 347.249,57.329C347.299,58.513 347.245,59.7 347.084,60.872L347.085,60.872ZM373.503,78.38C367.026,74.864 361.565,69.739 357.648,63.501C357.871,62.196 357.988,60.88 358,59.556C358.031,58.384 357.953,57.212 357.777,56.052C368.011,55.786 377.859,59.989 384.742,67.568C388.949,72.693 391.824,78.775 393.117,85.279C393.718,88.154 394.164,91.06 394.445,93.986C388.152,87.923 381.113,82.681 373.504,78.381L373.503,78.38Z" style="fill:rgb(118,47,14);fill-rule:nonzero;"/>
        </g>
        <g transform="matrix(1.4994,0,0,1.4994,-174.709,-69.9666)">
            <path d="M417.66,276.03C413.293,287.565 408.476,298.917 404.351,310.538C400.226,322.163 396.398,333.893 393.011,345.761L393.007,345.761C389.441,357.546 386.499,369.511 384.198,381.609C381.96,393.836 380.609,406.207 380.155,418.625C380.726,430.805 379.187,442.992 375.612,454.648C375.327,455.367 375.609,456.187 376.273,456.582C376.937,456.976 377.788,456.832 378.284,456.238C384.909,447.609 388.241,436.898 387.679,426.035C388.202,413.89 389.347,401.777 391.109,389.75C395.093,365.441 400.8,341.445 408.191,317.949C412.335,304.414 416.327,290.816 420.789,277.383C421.472,275.328 418.445,273.957 417.66,276.031L417.66,276.03Z" style="fill:rgb(118,47,14);fill-rule:nonzero;"/>
        </g>
        <g transform="matrix(1.4994,0,0,1.4994,-174.709,-69.9666)">
            <path d="M390.82,323.87C388.593,322.558 386.234,321.495 383.777,320.698C381.32,319.714 378.972,318.475 376.777,317.003C372.175,313.96 367.976,310.343 364.289,306.241C362.723,304.456 359.754,306.628 361.309,308.491C364.953,313.487 368.957,318.214 373.282,322.636C377.453,327.448 383.77,329.839 390.083,328.991C391.067,328.589 391.766,327.694 391.918,326.64C392.071,325.589 391.653,324.534 390.821,323.87L390.82,323.87Z" style="fill:rgb(118,47,14);fill-rule:nonzero;"/>
        </g>
        <g transform="matrix(1.4994,0,0,1.4994,-174.709,-69.9666)">
            <path d="M368.7,400.16C363.22,399.433 357.688,399.183 352.165,399.402C346.7,399.25 341.286,399.051 335.813,399.113C333.036,399.144 333.356,403.109 335.715,403.68C341.086,404.941 346.539,405.828 352.031,406.332C357.492,407.226 363.047,407.414 368.554,406.883C370.207,406.652 371.449,405.254 371.484,403.582C371.519,401.914 370.343,400.465 368.699,400.16L368.7,400.16Z" style="fill:rgb(118,47,14);fill-rule:nonzero;"/>
        </g>
        <g transform="matrix(1.4994,0,0,1.4994,-174.709,-69.9666)">
            <path d="M576.29,334.05C572.833,330.558 568.138,328.57 563.224,328.515C558.419,328.093 553.579,328.402 548.865,329.429C539.502,331.644 530.365,334.722 521.568,338.624C503.326,346.066 485.963,355.499 469.791,366.749C465.373,369.855 461.139,373.245 456.971,376.675C452.553,380.308 448.709,384.558 444.502,388.425C443.35,389.484 444.697,391.394 445.998,390.405C449.791,387.53 453.9,385.179 457.904,382.624C461.787,380.144 465.576,377.523 469.498,375.101C477.381,370.23 485.299,365.39 493.467,360.996C501.674,356.574 510.057,352.457 518.615,348.754L518.615,348.758C526.963,344.891 535.607,341.703 544.467,339.227C548.924,338.027 553.518,337.418 558.131,337.418C560.604,337.457 563.061,337.809 565.444,338.465C567.713,339.344 570.049,340.035 572.432,340.531C574.053,340.727 575.639,339.949 576.475,338.547C577.311,337.145 577.237,335.379 576.291,334.051L576.29,334.05Z" style="fill:rgb(118,47,14);fill-rule:nonzero;"/>
        </g>
        <g transform="matrix(1.4994,0,0,1.4994,-174.709,-69.9666)">
            <path d="M261.94,384.57C259.483,379.605 255.971,375.234 251.643,371.769C247.581,367.968 243.311,364.398 238.854,361.07C229.842,354.226 220.182,348.277 210.018,343.304C190.166,330.992 166.217,327.128 143.502,332.577C138.436,334.358 133.65,336.843 129.279,339.96C124.978,343.237 121.47,347.436 119.009,352.249C118.169,353.784 120.622,355.225 121.63,353.807C127.056,346.538 134.954,341.506 143.833,339.662C154.079,338.19 164.517,338.905 174.466,341.756C184.708,344.471 194.65,348.198 204.146,352.889C213.334,357.182 222.228,362.073 230.771,367.534C235.67,370.694 240.451,374.026 245.115,377.534C247.338,379.202 249.615,380.78 251.85,382.44C254.115,384.354 256.674,385.897 259.424,387.007C260.127,387.288 260.928,387.128 261.471,386.604C262.014,386.077 262.197,385.28 261.939,384.569L261.94,384.57Z" style="fill:rgb(118,47,14);fill-rule:nonzero;"/>
        </g>
        <g transform="matrix(1.4994,0,0,1.4994,-174.709,-69.9666)">
            <path d="M281.17,476.74C274.83,473.81 267.752,472.111 261.154,469.806C254.736,467.568 248.302,465.334 241.92,462.986C229.119,458.404 216.588,453.092 204.389,447.08C182.932,436.736 163.491,422.654 146.971,405.494C142.51,400.689 138.326,395.631 134.444,390.349C130.284,385.001 126.635,379.275 123.542,373.247C123.054,372.118 121.757,371.583 120.612,372.036C119.472,372.489 118.893,373.771 119.312,374.927C121.292,380.634 123.632,386.208 126.311,391.622C129.183,397.087 132.476,402.321 136.155,407.274C143.667,417.161 152.335,426.11 161.979,433.93C183.139,450.547 207.143,463.18 232.819,471.215C240.511,473.773 248.264,476.145 256.116,478.148C259.952,479.129 263.8,480.07 267.651,480.98C271.464,482.047 275.339,482.855 279.256,483.414C280.971,483.621 282.584,482.555 283.061,480.891C283.538,479.23 282.737,477.469 281.17,476.738L281.17,476.74Z" style="fill:rgb(118,47,14);fill-rule:nonzero;"/>
        </g>
        <g transform="matrix(1.4994,0,0,1.4994,-174.709,-69.9666)">
            <path d="M274.16,443.18C271.082,438.325 267.719,433.657 264.078,429.207C260.605,424.613 257.246,419.938 253.957,415.207C247.395,405.777 240.844,396.309 233.645,387.352C226.946,378.735 219.184,370.997 210.543,364.321C201.676,357.708 191.672,352.774 181.023,349.774C169.73,346.555 157.707,346.973 146.664,350.969C145.773,351.356 145.293,352.329 145.527,353.274C145.762,354.215 146.641,354.848 147.609,354.774C167.472,354.169 186.941,360.372 202.793,372.356C219.879,385.282 235.016,400.602 247.727,417.844C251.493,422.559 255.208,427.313 258.993,432.012C262.673,437.031 266.954,441.578 271.751,445.547C273.388,446.777 275.091,444.777 274.161,443.18L274.16,443.18Z" style="fill:rgb(118,47,14);fill-rule:nonzero;"/>
        </g>
        <g transform="matrix(1.4994,0,0,1.4994,-174.709,-69.9666)">
            <path d="M521.98,354.01C519.945,354.283 517.925,354.686 515.937,355.209C513.746,355.924 511.582,356.748 509.457,357.639L509.457,357.635C505.582,359.299 501.859,361.295 498.328,363.604C491.136,368.225 484.378,373.49 478.14,379.338C464.913,391.709 453.288,405.662 440.924,418.873C437.397,422.642 433.842,426.377 430.115,429.947C428.365,431.626 426.643,433.306 424.94,435.029C423.049,437.216 421.006,439.259 418.819,441.146C418.326,441.541 418.237,442.251 418.615,442.751C418.994,443.255 419.705,443.365 420.217,442.998C423.885,440.244 428.104,438.4 431.666,435.431C435.064,432.603 438.361,429.662 441.596,426.646C448.205,420.486 454.35,413.884 460.686,407.455L460.686,407.459C472.362,394.947 485.143,383.514 498.877,373.299C502.662,370.647 506.603,368.229 510.572,365.861C512.587,364.654 514.619,363.463 516.705,362.373C518.9,361.229 520.962,359.838 523.142,358.713C525.388,357.545 524.896,353.439 521.978,354.01L521.98,354.01Z" style="fill:rgb(118,47,14);fill-rule:nonzero;"/>
        </g>
        <g transform="matrix(1.4994,0,0,1.4994,-174.709,-69.9666)">
            <path d="M581.05,359.79C580.886,358.669 580.007,357.786 578.886,357.618C577.765,357.45 576.667,358.032 576.179,359.056C572.792,365.067 570.597,371.736 567.343,377.849C564.167,383.892 560.499,389.658 556.378,395.099C547.358,406.501 536.675,416.482 524.687,424.708C512.101,433.438 499.027,441.446 485.535,448.696C471.394,456.493 457.156,464.091 442.597,471.087C434.534,474.958 426.406,478.684 418.214,482.271C409.73,485.982 401.335,489.747 392.987,493.755L392.983,493.755C392.296,494.059 391.967,494.856 392.245,495.559C392.526,496.259 393.311,496.618 394.022,496.364C402.104,494.188 410.069,491.594 417.885,488.591C425.537,485.641 433.139,482.567 440.69,479.368C455.893,472.93 471.026,466.153 485.713,458.622C514.541,445.888 540.451,427.376 561.842,404.227C567.225,397.883 571.768,390.875 575.362,383.372C579.21,376.114 581.163,368.001 581.05,359.79L581.05,359.79Z" style="fill:rgb(118,47,14);fill-rule:nonzero;"/>
        </g>
        <g transform="matrix(1.4994,0,0,1.4994,-174.709,-69.9666)">
            <path d="M357.62,455.11C354.979,455.235 352.331,455.258 349.686,455.376C346.8,455.669 343.89,455.489 341.061,454.844C338.55,454.075 336.843,457.743 339.409,458.672C344.19,461.012 349.261,462.704 354.487,463.704C357.249,463.993 360.034,463.922 362.776,463.497C365.261,463.047 368.757,462.282 369.647,459.594C371.796,453.133 360.843,454.958 357.62,455.11L357.62,455.11Z" style="fill:rgb(118,47,14);fill-rule:nonzero;"/>
        </g>
        <g transform="matrix(1.4994,0,0,1.4994,-174.709,-69.9666)">
            <path d="M378.13,110.52C372.853,114.008 366.419,115.286 360.208,114.079C359.165,113.836 358.798,115.399 359.708,115.821C363.024,117.461 366.767,118.02 370.415,117.418C374.063,116.817 377.431,115.083 380.044,112.462C381.157,111.18 379.376,109.817 378.13,110.52L378.13,110.52Z" style="fill:rgb(118,47,14);fill-rule:nonzero;"/>
        </g>
        <g transform="matrix(1.4994,0,0,1.4994,-174.709,-69.9666)">
            <path d="M340.72,115.05C336.544,117.347 331.533,117.55 327.185,115.589C326.716,115.249 326.06,115.339 325.705,115.8C325.345,116.257 325.415,116.913 325.857,117.288C328.06,119.585 331.068,120.933 334.247,121.05C337.419,121.241 340.497,119.913 342.533,117.472C342.951,116.913 342.951,116.144 342.529,115.585C342.111,115.023 341.373,114.808 340.72,115.05L340.72,115.05Z" style="fill:rgb(118,47,14);fill-rule:nonzero;"/>
        </g>
        <g transform="matrix(1.4994,0,0,1.4994,-174.709,-69.9666)">
            <path d="M445.09,229.58C432.281,229.947 419.953,234.521 410.016,242.603C399.668,250.767 388.637,258.025 377.043,264.291C371.5,266.986 365.453,268.482 359.293,268.678C353.898,268.494 348.645,266.912 344.047,264.088C334,256.904 324.926,248.447 317.055,238.928C312.012,233.49 306.176,228.838 299.75,225.135C296.781,223.51 293.621,222.26 290.34,221.42C287.031,220.74 283.652,220.459 280.278,220.584C278.762,220.557 278.84,222.897 280.223,223.154L280.227,223.154C286.165,224.725 291.637,227.713 296.168,231.865C300.828,235.861 305.156,240.233 309.109,244.931C316.664,255.138 325.535,264.294 335.496,272.165C346.582,280.263 360.992,282.27 373.871,277.509C385.902,271.322 396.644,262.896 405.516,252.685C415.247,240.99 429.387,233.841 444.575,232.943C446.743,233.06 447.282,229.709 445.091,229.58L445.09,229.58Z" style="fill:rgb(118,47,14);fill-rule:nonzero;"/>
        </g>
        <g transform="matrix(1.4994,0,0,1.4994,-174.709,-69.9666)">
            <path d="M360.72,145.29C358.142,146.544 355.333,147.255 352.466,147.38C351.868,147.462 351.392,147.927 351.302,148.524C351.212,149.122 351.529,149.708 352.079,149.962C355.564,151.306 359.509,150.563 362.27,148.048C363.563,146.958 362.411,144.427 360.72,145.29L360.72,145.29Z" style="fill:rgb(118,47,14);fill-rule:nonzero;"/>
        </g>
    </g>
</svg>
